<svg width="86" height="86" viewBox="0 0 86 86" fill="none" xmlns="http://www.w3.org/2000/svg">
<path d="M14.3334 71.6663C12.3626 71.6663 10.676 70.9652 9.27375 69.5629C7.87147 68.1606 7.16914 66.4729 7.16675 64.4997V21.4997C7.16675 19.5288 7.86908 17.8423 9.27375 16.44C10.6784 15.0377 12.365 14.3354 14.3334 14.333H71.6667C73.6376 14.333 75.3253 15.0353 76.73 16.44C78.1347 17.8447 78.8358 19.5312 78.8334 21.4997V64.4997C78.8334 66.4705 78.1323 68.1583 76.73 69.5629C75.3277 70.9676 73.64 71.6687 71.6667 71.6663H14.3334ZM43.0001 46.583L71.6667 28.6663V21.4997L43.0001 39.4163L14.3334 21.4997V28.6663L43.0001 46.583Z" fill="#E6E6E6"/>
</svg>
