<?xml version="1.0" encoding="UTF-8"?>
<svg id="Capa_1" xmlns="http://www.w3.org/2000/svg" version="1.1" viewBox="0 0 182.5 164.1">
  <!-- Generator: Adobe Illustrator 30.5.1, SVG Export Plug-In . SVG Version: 2.1.4 Build 3)  -->
  <defs>
    <style>
      .st0 {
        fill: #fff;
      }

      .st1 {
        fill: none;
        stroke: #fff;
        stroke-miterlimit: 10;
        stroke-width: .5px;
      }
    </style>
  </defs>
  <path class="st1" d="M144.3,163.6s-53-7.7-70-11.7c-17.2-4.1-66.8-20.3-66.8-20.3-5-1.1-8.2-6.1-7-11,0,0,6-42.4,9.2-56.2C13,49.8,27,7.2,27,7.2c1.1-4.8,6.2-7.8,11.2-6.7,0,0,51.5,8,68.8,12.1,17,4,68.1,19.9,68.1,19.9,5,1.1,8.2,6.1,7,11,0,0-5.4,43.6-8.8,57.8-3.3,14.2-17.8,55.8-17.8,55.8-1.3,4.7-6.3,7.7-11.3,6.6Z"/>
  <path class="st0" d="M169.9,35.5s-48-14.9-64-18.7c-16.2-3.8-64.6-11.4-64.6-11.4-4.7-1-9.4,1.8-10.4,6.3,0,0-13.1,40-16.3,53.8-3,13-8.6,52.8-8.6,52.8-1,4.6,1.9,9.2,6.6,10.2,0,0,46.6,15.3,62.7,19,16,3.8,65.8,11,65.8,11,4.7,1,9.4-1.8,10.4-6.3,0,0,13.6-39.1,16.7-52.4,3.1-13.4,8.3-54.2,8.3-54.2.9-4.4-2-9.1-6.7-10.1ZM163.8,93.2c0,.5-.1,1-.1,1.7v.3c-.1.6-.2,1.4-.3,2h0l-11.1,40.9c-.3,1.3-1.6,2-2.8,1.7l-10.1-2.3c-1.3-.3-2.1-1.6-1.8-2.9l2.7-9.9-.6.3c-.8.4-1.8.8-2.6,1.1-1.8.7-3.7,1.5-5.5,2.1-.9.3-2,.6-2.9.8-.5.1-1,.3-1.5.4-1,.2-2,.5-3,.7-1.6.3-3.1.6-4.7.8-1,.2-2.2.3-3.2.4-1.7.2-3.3.3-5,.4-1.1.1-2.3.1-3.4.1-8.6.2-17.8-.7-27-2.8-.9-.2-1.8-.4-2.7-.6-.2,0-.3-.1-.5-.1-.8-.2-1.8-.4-2.6-.7-.2,0-.3-.1-.5-.1-.8-.2-1.7-.5-2.5-.7h-.1c-.8-.3-1.7-.5-2.6-.8-.2-.1-.3-.1-.5-.2-.8-.3-1.7-.6-2.4-.9-.1-.1-.3-.1-.4-.2-.8-.3-1.6-.6-2.3-.9q-.1,0-.2-.1c-.8-.3-1.6-.6-2.4-1-.1-.1-.3-.1-.4-.2-.7-.3-1.6-.7-2.3-1-.1-.1-.2-.1-.3-.2-.7-.3-1.5-.7-2.2-1-.1,0-.1-.1-.2-.1-.7-.4-1.5-.8-2.2-1.1-.1-.1-.3-.1-.4-.2-.7-.4-1.5-.8-2.2-1.3-.1,0-.2-.1-.2-.1-.7-.4-1.4-.8-2-1.3-.1,0-.1-.1-.2-.1-.7-.4-1.4-.8-2-1.4-.1-.1-.2-.1-.3-.2-.6-.4-1.4-.9-2-1.4h-.1c-.6-.5-1.3-1-1.9-1.5q-.1-.1-.2-.2c-.6-.5-1.3-.9-1.9-1.5-.1-.1-.2-.1-.3-.2-.6-.5-1.3-1-1.8-1.6h0c-.6-.5-1.1-1-1.8-1.6q-.1-.1-.2-.2c-.5-.5-1-1-1.7-1.6q-.1-.1-.2-.2c-1-1.1-2.1-2.2-3-3.3,0-.1-.1-.1-.1-.2-.5-.5-.9-1.1-1.4-1.7,0-.1-.1-.1-.1-.2-.9-1.1-1.8-2.4-2.6-3.6,0-.1-.1-.1-.1-.2-.4-.6-.7-1.1-1.1-1.8h-.1c-.7-1.4-1.4-2.6-2-3.8,0-.1-.1-.1-.1-.2-.3-.6-.6-1.3-.8-1.9h0c-.5-1.4-1-2.6-1.4-4q0-.1-.1-.2c-.2-.6-.4-1.3-.5-1.9h0c-.2-1,.6-1.8,1.5-1.6,5,1.1,18.1,4.2,22.2,5.1.7.2,1.3.6,1.6,1.4,5.4,12.1,20.1,23,38.9,27.4,22.6,5.2,43.9-.6,52.1-13.2l-2.6-.6-1.7-.4-88.8-20.6-22.4-5.2c-1-.2-1.7-1.1-1.7-2.2h0c0-.5.1-1,.1-1.7v-.3c.1-.5.1-1.1.2-1.7,0-.1,0-.2.1-.3.1-.5.2-1.1.3-1.7.6-2.8,1.7-5.5,3-8,.6-1,1.3-2.1,1.9-3.1.4-.6.9-1.4,1.5-2,.7-.9,1.6-1.9,2.5-2.8.6-.6,1.3-1.3,1.9-1.8.6-.6,1.3-1.1,2-1.7,1-.8,2.1-1.6,3.2-2.4.4-.2.7-.5,1.1-.7.7-.5,1.6-.9,2.4-1.5.4-.2.8-.4,1.3-.6.8-.4,1.7-.8,2.5-1.3.8-.4,1.8-.8,2.6-1.1.9-.4,1.8-.7,2.7-1s1.9-.6,2.8-.9c.9-.3,2-.6,2.9-.8.5-.1,1-.3,1.5-.4,1-.2,2-.5,3-.7,1.6-.3,3.1-.6,4.7-.8,1-.2,2.2-.3,3.2-.4,1.7-.2,3.3-.3,5-.4,1.1-.1,2.3-.1,3.4-.1,8.6-.2,17.8.7,27,2.8.9.2,1.8.4,2.7.6.2,0,.3.1.5.1.8.2,1.8.4,2.6.7.2,0,.3.1.5.1.8.2,1.7.5,2.5.7h.1c.8.3,1.7.5,2.6.8.2.1.3.1.5.2.8.3,1.7.6,2.4.9.1.1.3.1.4.2.8.3,1.6.6,2.3.9q.1,0,.2.1c.8.3,1.6.6,2.4,1,.1.1.3.1.4.2.7.3,1.6.7,2.3,1,.1.1.2.1.3.2.7.3,1.5.7,2.2,1,.1,0,.1.1.2.1.7.4,1.5.8,2.2,1.1.1.1.3.1.4.2.7.4,1.5.8,2.2,1.3.1,0,.2.1.2.1.7.4,1.4.8,2,1.3.1,0,.1.1.2.1.7.4,1.4.8,2,1.4.1.1.2.1.3.2.6.4,1.4.9,2,1.4h.1c.6.5,1.3,1,1.9,1.5q.1.1.2.2c.6.5,1.3.9,1.9,1.5.1.1.2.1.3.2.6.5,1.3,1,1.8,1.6h0c.6.5,1.1,1,1.8,1.6q.1.1.2.2c.5.5,1,1,1.7,1.6q.1.1.2.2c1,1.1,2.1,2.2,3,3.3,0,.1.1.1.1.2.5.5.9,1.1,1.4,1.7,0,.1.1.1.1.2.9,1.1,1.8,2.4,2.6,3.6,0,.1.1.1.1.2.4.6.7,1.1,1.1,1.8h.1c.7,1.4,1.4,2.6,2,3.8,0,.1.1.1.1.2.3.6.6,1.3.8,1.9h0c.5,1.4,1,2.6,1.4,4q0,.1.1.2v.2c.5,1.7-1,3.3-2.8,2.9-6.7-1.6-20.3-4.7-20.3-4.7-.7-.2-1.3-.6-1.6-1.4-5.4-12.1-20.1-23-38.9-27.4-22.6-5.2-43.9.6-52.1,13.2l2.6.6,1.7.4,88.8,20.6,22.4,5.2c1.1-.1,1.8.8,1.8,1.9h0Z"/>
</svg>