<?xml version="1.0" encoding="UTF-8"?>
<svg id="Capa_1" xmlns="http://www.w3.org/2000/svg" xmlns:xlink="http://www.w3.org/1999/xlink" version="1.1" viewBox="0 0 180.6 162.2">
  <!-- Generator: Adobe Illustrator 30.5.1, SVG Export Plug-In . SVG Version: 2.1.4 Build 3)  -->
  <defs>
    <style>
      .st0 {
        fill: url(#Degradado_sin_nombre_3);
        opacity: .8;
      }

      .st0, .st1 {
        isolation: isolate;
      }

      .st2 {
        fill: url(#Degradado_sin_nombre);
      }

      .st3 {
        fill: none;
        stroke: #000;
        stroke-miterlimit: 10;
        stroke-width: .5px;
      }

      .st4 {
        fill: url(#Degradado_sin_nombre_2);
      }

      .st1 {
        fill: #fff;
        opacity: .3;
      }
    </style>
    <linearGradient id="Degradado_sin_nombre" data-name="Degradado sin nombre" x1="26.2" y1="150.3" x2="166.1" y2="10.5" gradientTransform="translate(-6 161.3) scale(1 -1)" gradientUnits="userSpaceOnUse">
      <stop offset="0" stop-color="#4daed8"/>
      <stop offset=".3" stop-color="#4cacd5"/>
      <stop offset=".4" stop-color="#48a4cc"/>
      <stop offset=".6" stop-color="#4296bd"/>
      <stop offset=".7" stop-color="#3a83a8"/>
      <stop offset=".8" stop-color="#2f6b8d"/>
      <stop offset=".9" stop-color="#265676"/>
    </linearGradient>
    <linearGradient id="Degradado_sin_nombre_2" data-name="Degradado sin nombre 2" x1="24.7" y1="75.9" x2="168.2" y2="75.9" gradientTransform="translate(-6 161.3) scale(1 -1)" gradientUnits="userSpaceOnUse">
      <stop offset="0" stop-color="#6b8b27"/>
      <stop offset=".1" stop-color="#6e8e2a"/>
      <stop offset=".3" stop-color="#799933"/>
      <stop offset=".4" stop-color="#8aab42"/>
      <stop offset=".5" stop-color="#9ec054"/>
    </linearGradient>
    <radialGradient id="Degradado_sin_nombre_3" data-name="Degradado sin nombre 3" cx="-824.3" cy="-119.8" fx="-837.7" fy="-145.7" r="66.7" gradientTransform="translate(302.5 -819.6) rotate(-66.8) scale(1 -1.3)" gradientUnits="userSpaceOnUse">
      <stop offset=".4" stop-color="#fff" stop-opacity=".4"/>
      <stop offset="1" stop-color="#fff" stop-opacity=".1"/>
    </radialGradient>
  </defs>
  <g>
    <path class="st2" d="M142.9,162s-52.6-7.7-69.5-11.6c-17.1-4-66.2-20.1-66.2-20.1-5-1.2-8.1-6-7-10.8,0,0,5.9-42.1,9.1-55.8C12.7,49.2,26.5,6.9,26.5,6.9c1.1-4.8,6.1-7.8,11.1-6.6,0,0,51.1,8,68.2,12,16.9,4,67.6,19.7,67.6,19.7,5,1.2,8.1,6,7,10.8,0,0-5.4,43.2-8.7,57.3s-17.7,55.3-17.7,55.3c-1.2,4.8-6.1,7.8-11.1,6.6Z"/>
    <path class="st3" d="M139.7,157.1s-49.3-7.2-65.2-10.9c-16-3.7-62.2-18.9-62.2-18.9-4.7-1.1-7.6-5.7-6.5-10.2,0,0,5.6-39.5,8.5-52.4,3.2-13.6,16.2-53.4,16.2-53.4,1.1-4.5,5.7-7.3,10.4-6.2,0,0,48,7.5,64,11.3,15.9,3.7,63.4,18.5,63.4,18.5,4.7,1.1,7.6,5.7,6.5,10.2,0,0-5.1,40.5-8.2,53.8s-16.5,51.9-16.5,51.9c-1.1,4.6-5.7,7.4-10.4,6.3Z"/>
    <path class="st4" d="M161.8,96.2h0c.1-.7.2-1.4.3-2v-.3c0-.5.1-1.1.1-1.6h0c0-1-.7-2-1.7-2.2l-22.2-5.1-88-20.5-1.7-.4-2.6-.6c8.2-12.5,29.3-18.3,51.7-13.1,18.7,4.3,33.2,15.1,38.6,27.1.3.7.9,1.1,1.6,1.3,0,0,13.5,3.1,20.1,4.7,1.7.4,3.2-1.2,2.8-2.9v-.2q0,0-.1-.2c-.4-1.3-.9-2.5-1.4-3.8h0c-.3-.7-.5-1.3-.8-1.9,0,0-.1,0-.1-.2-.6-1.2-1.3-2.5-2-3.7h-.1c-.4-.7-.7-1.3-1.1-1.9,0,0-.1,0-.1-.2-.8-1.2-1.6-2.4-2.5-3.5,0,0-.1,0-.1-.2-.4-.6-.9-1.1-1.4-1.7,0,0-.1,0-.1-.2-1-1.1-2-2.2-3.1-3.3q-.1,0-.2-.2c-.5-.5-1.1-1.1-1.6-1.6q-.1,0-.2-.2c-.6-.5-1.1-1.1-1.7-1.6h0c-.6-.5-1.2-1-1.8-1.5-.1,0-.2-.2-.3-.2-.6-.5-1.2-1-1.8-1.5q-.1,0-.2-.2c-.6-.5-1.2-.9-1.9-1.4h-.1c-.6-.6-1.3-1-2-1.5-.1,0-.2-.2-.3-.2-.7-.4-1.3-.9-2-1.3-.1,0-.2,0-.2,0-.7-.4-1.3-.8-2-1.2-.1,0-.2,0-.2,0-.7-.4-1.4-.8-2.1-1.2-.1,0-.3-.2-.4-.2-.7-.4-1.5-.8-2.2-1.2,0,0-.2,0-.2,0-.7-.4-1.4-.7-2.2-1.1,0,0-.2,0-.3-.2-.8-.4-1.5-.7-2.3-1.1-.2,0-.3,0-.5-.2-.8-.3-1.6-.7-2.4-1,0,0,0,0-.2,0-.8-.3-1.5-.6-2.3-.9,0,0-.3,0-.4-.2-.8-.3-1.6-.6-2.4-.9-.2,0-.3,0-.5-.2-.8-.3-1.7-.6-2.5-.9h0c-.8-.3-1.7-.5-2.5-.8-.2,0-.3,0-.5,0-.8-.2-1.7-.5-2.6-.7-.2,0-.3,0-.5,0-.9-.2-1.8-.5-2.7-.7-9.6-1.9-18.6-2.8-27.1-2.6-1.1,0-2.3,0-3.4,0-1.7,0-3.3.2-5,.4-1.1.2-2.1.4-3.2.5-1.6.2-3.2.5-4.7.9-1,.2-2,.5-3,.7-.5,0-1,.3-1.5.4-1,.3-2,.6-2.9.9-1,.3-1.9.6-2.8,1-.9.3-1.8.7-2.7,1.1-.9.4-1.8.8-2.6,1.2-.9.4-1.7.8-2.5,1.3-.4.2-.8.4-1.2.7-.8.5-1.6.9-2.3,1.4-.4.2-.8.5-1.1.7-1.1.8-2.2,1.5-3.2,2.4-.7.5-1.3,1.1-2,1.7-.6.6-1.2,1.2-1.8,1.8-.9.9-1.7,1.8-2.5,2.8-.5.6-1,1.3-1.5,2-.7,1-1.3,2.1-1.9,3.1-1.3,2.5-2.4,5.2-3,8-.1.6-.2,1.1-.3,1.7,0,0,0,.2-.1.4-.1.6-.2,1.1-.2,1.7v.3c0,.5-.1,1.1-.1,1.6h0c0,1,.7,2,1.7,2.2l22.2,5.1,88.1,20.4,1.7.4,2.6.6c-8.2,12.5-29.3,18.3-51.7,13.1-18.7-4.3-33.2-15.1-38.6-27.1-.3-.7-.9-1.1-1.6-1.3-3.9-.9-17-3.9-21.9-5.1-.9-.2-1.7.6-1.5,1.5h0c.2.7.3,1.4.5,2q0,0,.1.2c.4,1.3.9,2.5,1.4,3.8h0c.3.7.5,1.3.8,1.9,0,0,.1,0,.1.2.6,1.2,1.3,2.5,2,3.7h.1c.4.7.7,1.3,1.1,1.9,0,0,.1,0,.1.2.8,1.2,1.6,2.4,2.5,3.5,0,0,.1,0,.1.2.4.6.9,1.1,1.4,1.7,0,0,.1,0,.1.2,1,1.1,2,2.2,3.1,3.3q0,0,.2.2l1.6,1.6q0,0,.2.2c.6.5,1.1,1.1,1.7,1.6h0c.6.5,1.2,1,1.8,1.5,0,0,.2.2.3.2.6.5,1.2,1,1.8,1.5q0,0,.2.2c.6.5,1.2.9,1.9,1.4h0c.6.6,1.3,1,2,1.5,0,0,.2.2.3.2.7.4,1.3.9,2,1.3,0,0,.2,0,.2,0,.7.4,1.3.8,2,1.2,0,0,.2,0,.2,0,.7.4,1.4.8,2.1,1.2,0,0,.3.2.4.2.7.4,1.5.8,2.2,1.2,0,0,.2,0,.2,0,.7.4,1.4.7,2.2,1.1,0,0,.2,0,.3.2.8.4,1.5.7,2.3,1.1.2,0,.3,0,.5.2.8.3,1.6.7,2.4,1,0,0,0,0,.2,0,.8.3,1.5.6,2.3.9,0,0,.3,0,.4.2.8.3,1.6.6,2.4.9.2,0,.3,0,.5.2.8.3,1.7.6,2.5.9h0c.8.3,1.7.5,2.5.8.2,0,.3,0,.5,0,.8.2,1.7.5,2.6.7.2,0,.3,0,.5,0,.9.2,1.8.5,2.7.7,9.2,2.1,18.2,3,26.8,2.8,1.1,0,2.3-.1,3.4-.1,1.7-.1,3.3-.2,5-.4,1.1-.1,2.2-.3,3.2-.4,1.6-.2,3.2-.5,4.7-.9,1-.2,2-.5,3-.7.5-.1,1-.3,1.5-.4,1-.3,2-.6,2.9-.9,1.9-.6,3.8-1.3,5.5-2,.9-.4,1.8-.8,2.6-1.2l.6-.3-2.7,9.8c-.3,1.3.4,2.6,1.7,2.9l10,2.3c1.2.3,2.4-.4,2.8-1.7l11.1-41Z"/>
  </g>
  <path class="st1" d="M173.3,32s-50.6-15.8-67.6-19.7C88.6,8.3,37.5.3,37.5.3c-5-1.2-9.9,1.8-11.1,6.6,0,0-13.8,42.3-17.2,56.8,0,0,0,.2-.1.3,12.2,8.4,38.5,19.9,84.3,11.3,32.5-6.1,66.5,9.8,79.5,16.9,3.2-18,7.1-49.4,7.1-49.4,1.4-4.8-1.7-9.7-6.7-10.8Z"/>
  <path class="st0" d="M154.3,50.1c2.9-13.4-17.8-29.3-46.3-35.5s-54-.4-56.9,13c-2.9,13.4,17.8,29.3,46.3,35.5s54,.4,56.9-13Z"/>
</svg>