<?xml version="1.0" encoding="UTF-8"?> <!-- Generator: Adobe Illustrator 21.1.0, SVG Export Plug-In --> <svg xmlns="http://www.w3.org/2000/svg" xmlns:xlink="http://www.w3.org/1999/xlink" xmlns:a="http://ns.adobe.com/AdobeSVGViewerExtensions/3.0/" x="0px" y="0px" width="182.6px" height="217px" viewBox="0 0 182.6 217" style="enable-background:new 0 0 182.6 217;" xml:space="preserve"> <style type="text/css"> .st0{fill:none;stroke:#FFFFFF;stroke-width:0.4348;stroke-miterlimit:10;} .st1{fill:#FFFFFF;} .st2{fill:#4097B2;} </style> <defs> </defs> <g id="XMLID_1_"> <g id="XMLID_2_"> <g id="XMLID_90_"> <g id="XMLID_91_"> <path id="XMLID_96_" class="st0" d="M138.1,156.6c0,0-50.7-7.4-67-11.2C54.6,141.5,7.2,126,7.2,126c-4.8-1.1-7.8-5.8-6.7-10.5 c0,0,5.7-40.6,8.8-53.8c3.2-14,16.6-54.8,16.6-54.8c1.1-4.6,5.9-7.5,10.7-6.4c0,0,49.3,7.7,65.8,11.6c16.3,3.8,65.2,19,65.2,19 c4.8,1.1,7.8,5.8,6.7,10.5c0,0-5.2,41.7-8.4,55.3c-3.2,13.6-17,53.4-17,53.4C147.7,154.8,142.9,157.7,138.1,156.6z"></path> <g id="XMLID_92_"> <path id="XMLID_93_" class="st1" d="M162.6,34c0,0-45.9-14.3-61.2-17.9C85.9,12.5,39.6,5.2,39.6,5.2c-4.5-1-9,1.7-10,6 c0,0-12.5,38.3-15.6,51.5c-2.9,12.4-8.2,50.5-8.2,50.5c-1,4.4,1.8,8.8,6.3,9.8c0,0,44.6,14.6,60,18.2c15.3,3.6,63,10.5,63,10.5 c4.5,1,9-1.7,10-6c0,0,13-37.4,16-50.1c3-12.8,7.9-51.9,7.9-51.9C169.9,39.5,167.1,35,162.6,34z M156.8,89.2 c0,0.5-0.1,1-0.1,1.6l0,0.3c-0.1,0.6-0.2,1.3-0.3,1.9c0,0,0,0,0,0l-10.6,39.1c-0.3,1.2-1.5,1.9-2.7,1.6l-9.7-2.2 c-1.2-0.3-2-1.5-1.7-2.8l2.6-9.5c-0.2,0.1-0.4,0.2-0.6,0.3c-0.8,0.4-1.7,0.8-2.5,1.1c-1.7,0.7-3.5,1.4-5.3,2 c-0.9,0.3-1.9,0.6-2.8,0.8c-0.5,0.1-1,0.3-1.4,0.4c-1,0.2-1.9,0.5-2.9,0.7c-1.5,0.3-3,0.6-4.5,0.8c-1,0.2-2.1,0.3-3.1,0.4 c-1.6,0.2-3.2,0.3-4.8,0.4c-1.1,0.1-2.2,0.1-3.3,0.1c-8.2,0.2-17-0.7-25.8-2.7c-0.9-0.2-1.7-0.4-2.6-0.6 c-0.2,0-0.3-0.1-0.5-0.1c-0.8-0.2-1.7-0.4-2.5-0.7c-0.2,0-0.3-0.1-0.5-0.1c-0.8-0.2-1.6-0.5-2.4-0.7c0,0-0.1,0-0.1,0 c-0.8-0.3-1.6-0.5-2.5-0.8c-0.2-0.1-0.3-0.1-0.5-0.2c-0.8-0.3-1.6-0.6-2.3-0.9c-0.1-0.1-0.3-0.1-0.4-0.2 c-0.8-0.3-1.5-0.6-2.2-0.9c-0.1,0-0.1,0-0.2-0.1c-0.8-0.3-1.5-0.6-2.3-1c-0.1-0.1-0.3-0.1-0.4-0.2c-0.7-0.3-1.5-0.7-2.2-1 c-0.1-0.1-0.2-0.1-0.3-0.2c-0.7-0.3-1.4-0.7-2.1-1c-0.1,0-0.1-0.1-0.2-0.1c-0.7-0.4-1.4-0.8-2.1-1.1c-0.1-0.1-0.3-0.1-0.4-0.2 c-0.7-0.4-1.4-0.8-2.1-1.2c-0.1,0-0.2-0.1-0.2-0.1c-0.7-0.4-1.3-0.8-1.9-1.2c-0.1,0-0.1-0.1-0.2-0.1c-0.7-0.4-1.3-0.8-1.9-1.3 c-0.1-0.1-0.2-0.1-0.3-0.2c-0.6-0.4-1.3-0.9-1.9-1.3c0,0-0.1-0.1-0.1-0.1c-0.6-0.4-1.2-0.9-1.8-1.3c-0.1-0.1-0.1-0.1-0.2-0.2 c-0.6-0.5-1.2-0.9-1.8-1.4c-0.1-0.1-0.2-0.1-0.3-0.2c-0.6-0.5-1.2-1-1.7-1.5c0,0,0,0,0,0c-0.6-0.5-1.1-1-1.7-1.5 c-0.1-0.1-0.1-0.1-0.2-0.2c-0.5-0.5-1-1-1.6-1.5c-0.1-0.1-0.1-0.1-0.2-0.2c-1-1.1-2-2.1-2.9-3.2c0-0.1-0.1-0.1-0.1-0.2 c-0.5-0.5-0.9-1.1-1.3-1.6c0-0.1-0.1-0.1-0.1-0.2c-0.9-1.1-1.7-2.3-2.5-3.4c0-0.1-0.1-0.1-0.1-0.2c-0.4-0.6-0.7-1.1-1.1-1.7 c0,0-0.1-0.1-0.1-0.1c-0.7-1.2-1.3-2.4-1.9-3.5c0-0.1-0.1-0.1-0.1-0.2c-0.3-0.6-0.6-1.2-0.8-1.8c0,0,0-0.1,0-0.1 c-0.5-1.2-1-2.4-1.3-3.7c0-0.1,0-0.1-0.1-0.2c-0.2-0.6-0.4-1.2-0.5-1.8c0,0,0,0,0-0.1c0,0,0,0,0,0c-0.2-0.9,0.6-1.6,1.4-1.4 c4.8,1.1,17.3,4,21.2,4.9c0.7,0.2,1.2,0.6,1.5,1.3c5.2,11.6,19.2,22,37.2,26.2c21.6,5,42-0.6,49.9-12.6l-2.5-0.6l-1.6-0.4 l-85-19.7l-21.4-5c-1-0.2-1.6-1.1-1.6-2.1c0,0,0,0,0,0c0-0.5,0.1-1,0.1-1.6l0-0.3c0.1-0.5,0.1-1.1,0.2-1.6c0-0.1,0-0.2,0.1-0.3 c0.1-0.5,0.2-1.1,0.3-1.6c0.6-2.7,1.6-5.3,2.9-7.7c0.6-1,1.2-2,1.8-3c0.4-0.6,0.9-1.3,1.4-1.9c0.7-0.9,1.5-1.8,2.4-2.7 c0.6-0.6,1.2-1.2,1.8-1.7c0.6-0.6,1.2-1.1,1.9-1.6c1-0.8,2-1.5,3.1-2.3c0.4-0.2,0.7-0.5,1.1-0.7c0.7-0.5,1.5-0.9,2.3-1.4 c0.4-0.2,0.8-0.4,1.2-0.6c0.8-0.4,1.6-0.8,2.4-1.2c0.8-0.4,1.7-0.8,2.5-1.1c0.9-0.4,1.7-0.7,2.6-1s1.8-0.6,2.7-0.9 c0.9-0.3,1.9-0.6,2.8-0.8c0.5-0.1,1-0.3,1.4-0.4c1-0.2,1.9-0.5,2.9-0.7c1.5-0.3,3-0.6,4.5-0.8c1-0.2,2.1-0.3,3.1-0.4 c1.6-0.2,3.2-0.3,4.8-0.4c1.1-0.1,2.2-0.1,3.3-0.1c8.2-0.2,17,0.7,25.8,2.7c0.9,0.2,1.7,0.4,2.6,0.6c0.2,0,0.3,0.1,0.5,0.1 c0.8,0.2,1.7,0.4,2.5,0.7c0.2,0,0.3,0.1,0.5,0.1c0.8,0.2,1.6,0.5,2.4,0.7c0,0,0.1,0,0.1,0c0.8,0.3,1.6,0.5,2.5,0.8 c0.2,0.1,0.3,0.1,0.5,0.2c0.8,0.3,1.6,0.6,2.3,0.9c0.1,0.1,0.3,0.1,0.4,0.2c0.8,0.3,1.5,0.6,2.2,0.9c0.1,0,0.1,0,0.2,0.1 c0.8,0.3,1.5,0.6,2.3,1c0.1,0.1,0.3,0.1,0.4,0.2c0.7,0.3,1.5,0.7,2.2,1c0.1,0.1,0.2,0.1,0.3,0.2c0.7,0.3,1.4,0.7,2.1,1 c0.1,0,0.1,0.1,0.2,0.1c0.7,0.4,1.4,0.8,2.1,1.1c0.1,0.1,0.3,0.1,0.4,0.2c0.7,0.4,1.4,0.8,2.1,1.2c0.1,0,0.2,0.1,0.2,0.1 c0.7,0.4,1.3,0.8,1.9,1.2c0.1,0,0.1,0.1,0.2,0.1c0.7,0.4,1.3,0.8,1.9,1.3c0.1,0.1,0.2,0.1,0.3,0.2c0.6,0.4,1.3,0.9,1.9,1.3 c0,0,0.1,0.1,0.1,0.1c0.6,0.4,1.2,0.9,1.8,1.3c0.1,0.1,0.1,0.1,0.2,0.2c0.6,0.5,1.2,0.9,1.8,1.4c0.1,0.1,0.2,0.1,0.3,0.2 c0.6,0.5,1.2,1,1.7,1.5c0,0,0,0,0,0c0.6,0.5,1.1,1,1.7,1.5c0.1,0.1,0.1,0.1,0.2,0.2c0.5,0.5,1,1,1.6,1.5 c0.1,0.1,0.1,0.1,0.2,0.2c1,1.1,2,2.1,2.9,3.2c0,0.1,0.1,0.1,0.1,0.2c0.5,0.5,0.9,1.1,1.3,1.6c0,0.1,0.1,0.1,0.1,0.2 c0.9,1.1,1.7,2.3,2.5,3.4c0,0.1,0.1,0.1,0.1,0.2c0.4,0.6,0.7,1.1,1.1,1.7c0,0,0.1,0.1,0.1,0.1c0.7,1.2,1.3,2.4,1.9,3.5 c0,0.1,0.1,0.1,0.1,0.2c0.3,0.6,0.6,1.2,0.8,1.8c0,0,0,0.1,0,0.1c0.5,1.2,1,2.4,1.3,3.7c0,0.1,0,0.1,0.1,0.2c0,0,0,0.1,0,0.2 c0.5,1.6-1,3.2-2.7,2.8c-6.4-1.5-19.4-4.5-19.4-4.5c-0.7-0.2-1.2-0.6-1.5-1.3c-5.2-11.6-19.2-22-37.2-26.2 c-21.6-5-42,0.6-49.9,12.6l2.5,0.6l1.6,0.4l85,19.7l21.4,5C156.2,87.3,156.8,88.2,156.8,89.2C156.8,89.2,156.8,89.2,156.8,89.2 z"></path> </g> </g> </g> <g id="XMLID_66_"> <path id="XMLID_87_" class="st1" d="M25.4,165.9v-3.3h2.9v3.3H25.4z M25.4,190.3v-19.6h2.9v19.6H25.4z"></path> <path id="XMLID_84_" class="st1" d="M50.8,170.7V190c0,2.9-0.6,4.9-1.7,6c-1.1,1.1-3.1,1.7-5.9,1.7h-1.3c-2.6,0-4.4-0.5-5.6-1.4 c-1.2-0.9-1.8-2.5-2-4.6h3c0.1,1.3,0.5,2.1,1.2,2.6c0.7,0.5,1.8,0.7,3.5,0.7h1.3c1.7,0,2.9-0.3,3.7-0.8c0.7-0.6,1.1-1.5,1.1-2.7 v-4.1c-0.5,1.1-1.3,1.9-2.2,2.3c-0.9,0.5-2.2,0.7-3.9,0.7c-2.8,0-4.8-0.6-5.9-1.7c-1.1-1.2-1.7-3.1-1.7-6v-4.6 c0-2.9,0.6-4.9,1.7-6c1.1-1.2,3.1-1.7,5.9-1.7c1.7,0,3,0.3,4,0.8c1,0.5,1.7,1.4,2.2,2.5v-3H50.8z M47.9,182.1v-3.2 c0-2-0.5-3.5-1.4-4.5c-0.9-0.9-2.5-1.4-4.6-1.4c-1.9,0-3.2,0.3-3.8,1c-0.6,0.7-1,2.3-1,4.7v3.3c0,2.5,0.3,4,1,4.7 c0.6,0.7,1.9,1,3.8,1c2.1,0,3.6-0.5,4.6-1.4C47.4,185.6,47.9,184.1,47.9,182.1z"></path> <path id="XMLID_82_" class="st1" d="M56.4,181.3v-2.6h10.4v2.6H56.4z"></path> <path id="XMLID_80_" class="st1" d="M88.3,170.7v19.6h-2.8v-2.7c-0.5,1-1.2,1.7-2.3,2.2c-1.1,0.5-2.4,0.7-4.2,0.7 c-2.6,0-4.3-0.5-5.4-1.6c-1-1-1.5-2.8-1.5-5.4v-12.8h2.9v12.2c0,2,0.3,3.4,0.9,4c0.6,0.6,1.8,1,3.6,1c2,0,3.5-0.5,4.5-1.4 c0.9-0.9,1.4-2.4,1.4-4.4v-11.4H88.3z"></path> <path id="XMLID_78_" class="st1" d="M94.4,190.3v-19.6h2.8v2.7c0.4-1,1-1.8,1.9-2.2c0.9-0.5,2-0.7,3.5-0.7c2.1,0,3.6,0.5,4.5,1.5 c0.9,1,1.3,2.9,1.3,5.5v0.1h-2.9V177c0-1.6-0.2-2.6-0.7-3.2c-0.5-0.5-1.4-0.8-2.8-0.8c-1.6,0-2.8,0.5-3.5,1.4 c-0.7,0.9-1.1,2.4-1.1,4.5v11.4H94.4z"></path> <path id="XMLID_75_" class="st1" d="M112.4,190.3v-27.7h2.9v10.9c0.6-1.1,1.3-1.9,2.3-2.3c0.9-0.5,2.2-0.7,3.8-0.7 c2.8,0,4.8,0.6,5.9,1.7c1.1,1.2,1.7,3.2,1.7,6v4.6c0,2.8-0.6,4.8-1.7,6c-1.1,1.2-3.1,1.7-5.9,1.7c-1.7,0-3-0.3-4-0.8 c-1-0.5-1.7-1.4-2.2-2.5v3H112.4z M115.3,178.9v3.2c0,2,0.5,3.5,1.4,4.4c0.9,0.9,2.5,1.4,4.6,1.4c1.9,0,3.2-0.3,3.8-1 c0.6-0.7,0.9-2.3,0.9-4.7v-3.3c0-2.5-0.3-4.1-0.9-4.7c-0.6-0.7-1.9-1-3.8-1c-2.1,0-3.6,0.5-4.6,1.4 C115.8,175.4,115.3,176.8,115.3,178.9z"></path> <path id="XMLID_72_" class="st1" d="M147.3,188.2c-0.4,0.8-1.2,1.4-2.1,1.8c-1,0.4-2.3,0.5-4,0.5c-3.1,0-5.1-0.4-6.2-1.3 c-1-0.9-1.6-2.5-1.6-4.9c0-1.4,0.1-2.5,0.4-3.2c0.2-0.8,0.6-1.4,1.2-1.9c0.5-0.4,1.2-0.7,2.1-0.8c0.9-0.2,2.2-0.3,3.9-0.3 c1.8,0,3.1,0.1,4.1,0.4c0.9,0.3,1.6,0.8,2.1,1.5v-3.4c0-1.6-0.3-2.6-0.9-3.1c-0.6-0.5-2.2-0.7-4.7-0.7c-1.8,0-3,0.2-3.6,0.6 c-0.6,0.4-0.9,1.1-0.9,2.1h-2.9v-0.4c0-1.7,0.5-2.9,1.6-3.6c1.1-0.7,3-1.1,5.6-1.1c2.1,0,3.6,0.1,4.7,0.3 c1.1,0.2,1.9,0.5,2.4,0.8c0.6,0.4,1,1,1.2,1.7c0.2,0.7,0.4,1.8,0.4,3.4v13.7h-2.6L147.3,188.2z M147.2,185.3v-2.1 c0-0.9-0.5-1.6-1.4-2c-0.9-0.4-2.5-0.7-4.5-0.7c-1.9,0-3.2,0.2-3.8,0.7c-0.6,0.5-1,1.4-1,2.7c0,1.5,0.3,2.6,1,3.1 c0.7,0.5,2,0.8,4.1,0.8c1.8,0,3.2-0.2,4.2-0.7C146.7,186.7,147.2,186.1,147.2,185.3z"></path> <path id="XMLID_70_" class="st1" d="M156,190.3v-19.6h2.8v2.7c0.5-1,1.2-1.7,2.3-2.2c1-0.5,2.4-0.7,4.1-0.7 c2.6,0,4.4,0.5,5.4,1.6c1,1,1.5,2.9,1.5,5.5v12.8h-2.9v-12.2c0-2-0.3-3.4-0.9-4c-0.6-0.6-1.8-1-3.5-1c-2,0-3.5,0.5-4.5,1.4 c-0.9,0.9-1.4,2.4-1.4,4.4v11.4H156z"></path> <g id="XMLID_67_"> <path id="XMLID_68_" class="st1" d="M2.4,184.4h2.9v0.4c0,1.2,0.4,2,1.1,2.5c0.7,0.5,2,0.7,4.2,0.7c2.5,0,4.1-0.2,4.6-0.7 c0.6-0.5,0.9-1.3,0.9-2.7c0-1.3,0-2.9,0-3.6c-0.8,0-13.2,0-13.9,0c0-0.7,0-3.8,0-5.1c0-2.2,0.5-3.6,1.6-4.4 c1.1-0.8,3.5-1.1,7.3-1.1c2.9,0,5.4,0.4,6.4,1.1c1,0.7,1.5,2,1.5,3.8h-2.9v-0.2c0-0.9-0.4-1.5-1.1-1.8c-0.7-0.3-2.8-0.5-5-0.5 c-2.2,0-3.5,0.2-4.1,0.6c-0.6,0.4-0.9,1.2-0.9,2.5c0,0.8,0,2.3,0,2.7c1.7,0,11.3,0,14,0c0,0.7,0,4.4,0,5.9 c0,1.4-0.2,2.5-0.5,3.3c-0.4,0.7-1,1.4-1.9,2c-0.4,0.3-1.1,0.5-2.1,0.6c-1,0.1-2.3,0.2-4,0.2c-3.5,0-5.5-0.4-6.6-1.2 c-1.1-0.8-1.7-2.2-1.7-4.3V184.4z"></path> </g> </g> <g id="XMLID_3_"> <path id="XMLID_64_" class="st1" d="M1.1,215.3v-8.1H2v8.1H1.1z"></path> <path id="XMLID_62_" class="st1" d="M4,215.3v-8.1h1.4l4.4,7.3v-7.3h0.9v8.1H9.3L4.8,208v7.3H4z"></path> <path id="XMLID_60_" class="st1" d="M12.6,215.3v-8.1h1.5l2.8,7.3l2.8-7.3h1.5v8.1h-0.9v-7.4l-2.8,7.4h-1.1l-2.8-7.4v7.4H12.6z"></path> <path id="XMLID_57_" class="st1" d="M22.9,209.8c0-1,0.2-1.8,0.6-2.2c0.4-0.4,1.2-0.6,2.3-0.6h1c1.1,0,1.9,0.2,2.3,0.6 c0.4,0.4,0.6,1.1,0.6,2.2v2.8c0,1-0.2,1.8-0.6,2.2c-0.4,0.4-1.2,0.6-2.3,0.6h-1c-1.1,0-1.9-0.2-2.3-0.6c-0.4-0.4-0.6-1.1-0.6-2.2 V209.8z M26.6,207.9h-0.5c-0.6,0-1,0-1.2,0.1c-0.2,0.1-0.4,0.2-0.6,0.3c-0.2,0.1-0.3,0.3-0.3,0.6c-0.1,0.2-0.1,0.6-0.1,1.2v2.3 c0,0.6,0,1,0.1,1.2c0.1,0.2,0.2,0.4,0.3,0.6c0.2,0.1,0.4,0.2,0.6,0.3c0.2,0.1,0.6,0.1,1.2,0.1h0.5c0.6,0,1,0,1.2-0.1 c0.2-0.1,0.4-0.2,0.6-0.3c0.2-0.1,0.3-0.3,0.3-0.5c0.1-0.2,0.1-0.6,0.1-1.2V210c0-0.6,0-1-0.1-1.2c-0.1-0.2-0.2-0.4-0.3-0.6 c-0.2-0.1-0.4-0.2-0.6-0.3C27.5,207.9,27.1,207.9,26.6,207.9z"></path> <path id="XMLID_53_" class="st1" d="M31.5,215.3v-8.1h3.8c0.9,0,1.5,0.1,1.7,0.4c0.3,0.3,0.4,0.8,0.4,1.6c0,0.6-0.1,1.1-0.2,1.3 s-0.4,0.4-0.7,0.5c0.4,0.1,0.7,0.3,0.9,0.6c0.2,0.3,0.3,0.7,0.3,1.4c0,0.9-0.2,1.5-0.5,1.8c-0.4,0.3-1.1,0.5-2.1,0.5H31.5z M32.4,210.6h2.9c0.5,0,0.8-0.1,1-0.3c0.2-0.2,0.2-0.5,0.2-1.1c0-0.6-0.1-0.9-0.3-1c-0.2-0.1-0.6-0.2-1.3-0.2h-2.5V210.6z M32.4,214.4h3c0.5,0,0.9-0.1,1.1-0.2c0.2-0.2,0.3-0.6,0.3-1.3c0-0.6-0.1-1-0.3-1.1c-0.2-0.2-0.7-0.3-1.6-0.3h-2.4V214.4z"></path> <path id="XMLID_51_" class="st1" d="M39.3,215.3v-8.1h0.9v8.1H39.3z"></path> <path id="XMLID_49_" class="st1" d="M42.2,215.3v-8.1h0.9v7.3h4.6v0.9H42.2z"></path> <path id="XMLID_47_" class="st1" d="M48.9,215.3v-8.1h0.9v8.1H48.9z"></path> <path id="XMLID_44_" class="st1" d="M50.9,215.3l3-8.1h1.5l3,8.1h-0.9l-0.8-2.1h-4.1l-0.8,2.1H50.9z M52.9,212.4h3.5l-1.6-4.4 h-0.3L52.9,212.4z"></path> <path id="XMLID_41_" class="st1" d="M59.5,215.3v-8.1h3.7c0.9,0,1.5,0.1,1.9,0.4c0.3,0.3,0.5,0.8,0.5,1.5v1.2 c0,0.4-0.1,0.8-0.3,1c-0.2,0.2-0.4,0.4-0.8,0.5c0.4,0.1,0.7,0.3,0.8,0.5c0.2,0.2,0.2,0.6,0.2,1.1v2h-0.9v-1.7 c0-0.6-0.1-1-0.3-1.2c-0.2-0.2-0.5-0.3-1.1-0.3h-2.9v3.2H59.5z M63,208h-2.6v3.3H63c0.7,0,1.1-0.1,1.3-0.3 c0.2-0.2,0.3-0.5,0.3-0.9v-1c0-0.4-0.1-0.7-0.3-0.9C64.1,208.1,63.7,208,63,208z"></path> <path id="XMLID_39_" class="st1" d="M67.3,215.3v-8.1h0.9v8.1H67.3z"></path> <path id="XMLID_36_" class="st1" d="M69.4,215.3l3-8.1h1.5l3,8.1h-0.9l-0.8-2.1H71l-0.8,2.1H69.4z M71.3,212.4h3.5l-1.6-4.4H73 L71.3,212.4z"></path> <path id="XMLID_34_" class="st1" d="M85.8,215.3h-0.9v-3.6l-3.4-4.5h1.1l2.7,3.8l2.7-3.8h1.1l-3.4,4.5V215.3z"></path> <path id="XMLID_32_" class="st1" d="M94.7,215.3v-8.1h0.9v7.3h4.6v0.9H94.7z"></path> <path id="XMLID_29_" class="st1" d="M101.2,209.8c0-1,0.2-1.8,0.6-2.2c0.4-0.4,1.2-0.6,2.3-0.6h1c1.1,0,1.9,0.2,2.3,0.6 c0.4,0.4,0.6,1.1,0.6,2.2v2.8c0,1-0.2,1.8-0.6,2.2c-0.4,0.4-1.2,0.6-2.3,0.6h-1c-1.1,0-1.9-0.2-2.3-0.6c-0.4-0.4-0.6-1.1-0.6-2.2 V209.8z M104.9,207.9h-0.5c-0.6,0-1,0-1.2,0.1c-0.2,0.1-0.4,0.2-0.6,0.3c-0.2,0.1-0.3,0.3-0.3,0.6c-0.1,0.2-0.1,0.6-0.1,1.2v2.3 c0,0.6,0,1,0.1,1.2c0.1,0.2,0.2,0.4,0.3,0.6c0.2,0.1,0.4,0.2,0.6,0.3c0.2,0.1,0.6,0.1,1.2,0.1h0.5c0.6,0,1,0,1.2-0.1 c0.2-0.1,0.4-0.2,0.6-0.3c0.2-0.1,0.3-0.3,0.3-0.5c0.1-0.2,0.1-0.6,0.1-1.2V210c0-0.6,0-1-0.1-1.2c-0.1-0.2-0.2-0.4-0.3-0.6 c-0.2-0.1-0.4-0.2-0.6-0.3C105.8,207.9,105.4,207.9,104.9,207.9z"></path> <path id="XMLID_27_" class="st1" d="M108.7,208v-0.9h6.1v0.9h-2.6v7.3h-0.9V208H108.7z"></path> <path id="XMLID_25_" class="st1" d="M115.6,215.3v-8.1h0.9v8.1H115.6z"></path> <path id="XMLID_23_" class="st1" d="M118.5,215.3v-8.1h5.1v0.9h-4.2v2.7h4.1v0.8h-4.1v3.8H118.5z"></path> <path id="XMLID_21_" class="st1" d="M125.1,215.3v-8.1h0.9v8.1H125.1z"></path> <path id="XMLID_19_" class="st1" d="M127.7,209.8c0-1,0.2-1.8,0.6-2.2c0.4-0.4,1.1-0.6,2.1-0.6h1c1,0,1.7,0.2,2.1,0.5 c0.4,0.4,0.6,0.9,0.6,1.8v0.4h-0.9v-0.2c0-0.6-0.1-1-0.4-1.3c-0.3-0.2-0.7-0.3-1.5-0.3h-0.6c-0.5,0-0.9,0-1.1,0.1 c-0.2,0.1-0.4,0.2-0.6,0.3c-0.1,0.1-0.3,0.3-0.3,0.5c-0.1,0.2-0.1,0.6-0.1,1.2v2.3c0,0.6,0,1,0.1,1.2c0.1,0.2,0.2,0.4,0.3,0.5 c0.1,0.1,0.3,0.2,0.5,0.3c0.2,0.1,0.6,0.1,1.1,0.1h0.6c0.8,0,1.3-0.1,1.5-0.4s0.4-0.7,0.4-1.4c0-0.1,0-0.2,0-0.2 c0-0.1,0-0.1,0-0.2h0.9v0.5c0,0.9-0.2,1.5-0.6,1.9c-0.4,0.4-1.1,0.5-2.1,0.5h-1c-1,0-1.7-0.2-2.1-0.6c-0.4-0.4-0.6-1.1-0.6-2.2 V209.8z"></path> <path id="XMLID_16_" class="st1" d="M134.6,215.3l3-8.1h1.5l3,8.1h-0.9l-0.8-2.1h-4.1l-0.8,2.1H134.6z M136.6,212.4h3.5l-1.6-4.4 h-0.3L136.6,212.4z"></path> <path id="XMLID_13_" class="st1" d="M143.2,215.3v-8.1h3.9c1,0,1.7,0.2,2.1,0.6c0.4,0.4,0.6,1.1,0.6,2.1v2.7c0,1-0.2,1.7-0.6,2.1 c-0.4,0.4-1.1,0.6-2.1,0.6H143.2z M144.1,214.5h2.9c0.8,0,1.3-0.1,1.6-0.4c0.3-0.3,0.4-0.8,0.4-1.5v-2.6c0-0.8-0.1-1.3-0.4-1.6 c-0.3-0.3-0.8-0.4-1.6-0.4h-2.9V214.5z"></path> <path id="XMLID_10_" class="st1" d="M151.3,209.8c0-1,0.2-1.8,0.6-2.2c0.4-0.4,1.2-0.6,2.3-0.6h1c1.1,0,1.9,0.2,2.3,0.6 c0.4,0.4,0.6,1.1,0.6,2.2v2.8c0,1-0.2,1.8-0.6,2.2c-0.4,0.4-1.2,0.6-2.3,0.6h-1c-1.1,0-1.9-0.2-2.3-0.6c-0.4-0.4-0.6-1.1-0.6-2.2 V209.8z M155,207.9h-0.5c-0.6,0-1,0-1.2,0.1c-0.2,0.1-0.4,0.2-0.6,0.3c-0.2,0.1-0.3,0.3-0.3,0.6c-0.1,0.2-0.1,0.6-0.1,1.2v2.3 c0,0.6,0,1,0.1,1.2c0.1,0.2,0.2,0.4,0.3,0.6c0.2,0.1,0.4,0.2,0.6,0.3c0.2,0.1,0.6,0.1,1.2,0.1h0.5c0.6,0,1,0,1.2-0.1 c0.2-0.1,0.4-0.2,0.6-0.3c0.2-0.1,0.3-0.3,0.3-0.5c0.1-0.2,0.1-0.6,0.1-1.2V210c0-0.6,0-1-0.1-1.2c-0.1-0.2-0.2-0.4-0.3-0.6 c-0.2-0.1-0.4-0.2-0.6-0.3C156,207.9,155.6,207.9,155,207.9z"></path> <path id="XMLID_7_" class="st1" d="M160,215.3v-8.1h3.7c0.9,0,1.5,0.1,1.9,0.4c0.3,0.3,0.5,0.8,0.5,1.5v1.2c0,0.4-0.1,0.8-0.3,1 c-0.2,0.2-0.4,0.4-0.8,0.5c0.4,0.1,0.7,0.3,0.8,0.5c0.2,0.2,0.2,0.6,0.2,1.1v2h-0.9v-1.7c0-0.6-0.1-1-0.3-1.2 c-0.2-0.2-0.5-0.3-1.1-0.3h-2.9v3.2H160z M163.4,208h-2.6v3.3h2.6c0.7,0,1.1-0.1,1.3-0.3c0.2-0.2,0.3-0.5,0.3-0.9v-1 c0-0.4-0.1-0.7-0.3-0.9C164.6,208.1,164.1,208,163.4,208z"></path> <path id="XMLID_4_" class="st1" d="M166.9,215.3l3-8.1h1.5l3,8.1h-0.9l-0.8-2.1h-4.1l-0.8,2.1H166.9z M168.9,212.4h3.5l-1.6-4.4 h-0.3L168.9,212.4z"></path> </g> </g> </g> </svg> 