<?xml version="1.0" encoding="UTF-8"?>
<svg id="Capa_1" xmlns="http://www.w3.org/2000/svg" xmlns:xlink="http://www.w3.org/1999/xlink" version="1.1" viewBox="0 0 180.6 223.1">
  <!-- Generator: Adobe Illustrator 30.5.1, SVG Export Plug-In . SVG Version: 2.1.4 Build 3)  -->
  <defs>
    <style>
      .st0 {
        fill: url(#Degradado_sin_nombre_3);
        opacity: .8;
      }

      .st0, .st1 {
        isolation: isolate;
      }

      .st2 {
        fill: url(#Degradado_sin_nombre);
      }

      .st3 {
        fill: none;
        stroke: #000;
        stroke-miterlimit: 10;
        stroke-width: .5px;
      }

      .st4 {
        fill: url(#Degradado_sin_nombre_2);
      }

      .st1 {
        fill: #fff;
        opacity: .3;
      }
    </style>
    <linearGradient id="Degradado_sin_nombre" data-name="Degradado sin nombre" x1="26.2" y1="210" x2="166.1" y2="70.2" gradientTransform="translate(-6 221) scale(1 -1)" gradientUnits="userSpaceOnUse">
      <stop offset="0" stop-color="#4daed8"/>
      <stop offset=".3" stop-color="#4cacd5"/>
      <stop offset=".4" stop-color="#48a4cc"/>
      <stop offset=".6" stop-color="#4296bd"/>
      <stop offset=".7" stop-color="#3a83a8"/>
      <stop offset=".8" stop-color="#2f6b8d"/>
      <stop offset=".9" stop-color="#265676"/>
    </linearGradient>
    <linearGradient id="Degradado_sin_nombre_2" data-name="Degradado sin nombre 2" x1="24.6" y1="135.6" x2="168.1" y2="135.6" gradientTransform="translate(-6 221) scale(1 -1)" gradientUnits="userSpaceOnUse">
      <stop offset="0" stop-color="#6b8b27"/>
      <stop offset=".1" stop-color="#6e8e2a"/>
      <stop offset=".3" stop-color="#799933"/>
      <stop offset=".4" stop-color="#8aab42"/>
      <stop offset=".5" stop-color="#9ec054"/>
    </linearGradient>
    <radialGradient id="Degradado_sin_nombre_3" data-name="Degradado sin nombre 3" cx="-796.9" cy="-81" fx="-810.3" fy="-106.9" r="66.7" gradientTransform="translate(338.6 -774.3) rotate(-66.8) scale(1 -1.3)" gradientUnits="userSpaceOnUse">
      <stop offset=".4" stop-color="#fff" stop-opacity=".4"/>
      <stop offset="1" stop-color="#fff" stop-opacity=".1"/>
    </radialGradient>
  </defs>
  <g>
    <path class="st2" d="M142.9,162s-52.6-7.7-69.5-11.6c-17.1-4-66.2-20.1-66.2-20.1-5-1.2-8.1-6-7-10.8,0,0,5.9-42.1,9.1-55.8C12.7,49.2,26.5,6.9,26.5,6.9c1.1-4.8,6.1-7.8,11.1-6.6,0,0,51.1,8,68.2,12,16.9,4,67.6,19.7,67.6,19.7,5,1.2,8.1,6,7,10.8,0,0-5.4,43.2-8.7,57.3s-17.7,55.3-17.7,55.3c-1.2,4.8-6.1,7.8-11.1,6.6Z"/>
    <path class="st3" d="M139.7,157.1s-49.3-7.2-65.2-10.9c-16-3.7-62.2-18.9-62.2-18.9-4.7-1.1-7.6-5.7-6.5-10.2,0,0,5.6-39.5,8.5-52.4,3.2-13.6,16.2-53.4,16.2-53.4,1.1-4.5,5.7-7.3,10.4-6.2,0,0,48,7.5,64,11.3,15.9,3.7,63.4,18.5,63.4,18.5,4.7,1.1,7.6,5.7,6.5,10.2,0,0-5.1,40.5-8.2,53.8s-16.5,51.9-16.5,51.9c-1.1,4.6-5.7,7.4-10.4,6.3Z"/>
    <path class="st4" d="M161.8,96.2h0c.1-.7.2-1.4.3-2v-.3c0-.5.1-1.1.1-1.6h0c0-1-.7-2-1.7-2.2l-22.2-5.1-88-20.5-1.7-.4-2.6-.6c8.2-12.5,29.3-18.3,51.7-13.1,18.7,4.3,33.2,15.1,38.6,27.1.3.7.9,1.1,1.6,1.3,0,0,13.5,3.1,20.1,4.7,1.7.4,3.2-1.2,2.8-2.9v-.2q0,0-.1-.2c-.4-1.3-.9-2.5-1.4-3.8h0c-.3-.7-.5-1.3-.8-1.9,0,0-.1,0-.1-.2-.6-1.2-1.3-2.5-2-3.7h-.1c-.4-.7-.7-1.3-1.1-1.9,0,0-.1,0-.1-.2-.8-1.2-1.6-2.4-2.5-3.5,0,0-.1,0-.1-.2-.4-.6-.9-1.1-1.4-1.7,0,0-.1,0-.1-.2-1-1.1-2-2.2-3.1-3.3q-.1,0-.2-.2c-.5-.5-1.1-1.1-1.6-1.6q-.1,0-.2-.2c-.6-.5-1.1-1.1-1.7-1.6h0c-.6-.5-1.2-1-1.8-1.5-.1,0-.2-.2-.3-.2-.6-.5-1.2-1-1.8-1.5q-.1,0-.2-.2c-.6-.5-1.2-.9-1.9-1.4h-.1c-.6-.6-1.3-1-2-1.5-.1,0-.2-.2-.3-.2-.7-.4-1.3-.9-2-1.3-.1,0-.2,0-.2,0-.7-.4-1.3-.8-2-1.2-.1,0-.2,0-.2,0-.7-.4-1.4-.8-2.1-1.2-.1,0-.3-.2-.4-.2-.7-.4-1.5-.8-2.2-1.2,0,0-.2,0-.2,0-.7-.4-1.4-.7-2.2-1.1,0,0-.2,0-.3-.2-.8-.4-1.5-.7-2.3-1.1-.2,0-.3,0-.5-.2-.8-.3-1.6-.7-2.4-1,0,0,0,0-.2,0-.8-.3-1.5-.6-2.3-.9,0,0-.3,0-.4-.2-.8-.3-1.6-.6-2.4-.9-.2,0-.3,0-.5-.2-.8-.3-1.7-.6-2.5-.9h0c-.8-.3-1.7-.5-2.5-.8-.2,0-.3,0-.5,0-.8-.2-1.7-.5-2.6-.7-.2,0-.3,0-.5,0-.9-.2-1.8-.5-2.7-.7-9.6-1.9-18.6-2.8-27.1-2.6-1.1,0-2.3,0-3.4,0-1.7,0-3.3.2-5,.4-1.1.2-2.1.4-3.2.5-1.6.2-3.2.5-4.7.9-1,.2-2,.5-3,.7-.5,0-1,.3-1.5.4-1,.3-2,.6-2.9.9-1,.3-1.9.6-2.8,1-.9.3-1.8.7-2.7,1.1-.9.4-1.8.8-2.6,1.2-.9.4-1.7.8-2.5,1.3-.4.2-.8.4-1.2.7-.8.5-1.6.9-2.3,1.4-.4.2-.8.5-1.1.7-1.1.8-2.2,1.5-3.2,2.4-.7.5-1.3,1.1-2,1.7-.6.6-1.2,1.2-1.8,1.8-.9.9-1.7,1.8-2.5,2.8-.5.6-1,1.3-1.5,2-.7,1-1.3,2.1-1.9,3.1-1.3,2.5-2.4,5.2-3,8-.1.6-.2,1.1-.3,1.7,0,0,0,.2-.1.4-.1.6-.2,1.1-.2,1.7v.3c0,.5-.1,1.1-.1,1.6h0c0,1,.7,2,1.7,2.2l22.2,5.1,88.1,20.4,1.7.4,2.6.6c-8.2,12.5-29.3,18.3-51.7,13.1-18.7-4.3-33.2-15.1-38.6-27.1-.3-.7-.9-1.1-1.6-1.3-3.9-.9-17-3.9-21.9-5.1-.9-.2-1.7.6-1.5,1.5h0c.2.7.3,1.4.5,2q0,0,.1.2c.4,1.3.9,2.5,1.4,3.8h0c.3.7.5,1.3.8,1.9,0,0,.1,0,.1.2.6,1.2,1.3,2.5,2,3.7h.1c.4.7.7,1.3,1.1,1.9,0,0,.1,0,.1.2.8,1.2,1.6,2.4,2.5,3.5,0,0,.1,0,.1.2.4.6.9,1.1,1.4,1.7,0,0,.1,0,.1.2,1,1.1,2,2.2,3.1,3.3q0,0,.2.2l1.6,1.6q0,0,.2.2c.6.5,1.1,1.1,1.7,1.6h0c.6.5,1.2,1,1.8,1.5,0,0,.2.2.3.2.6.5,1.2,1,1.8,1.5q0,0,.2.2c.6.5,1.2.9,1.9,1.4h0c.6.6,1.3,1,2,1.5,0,0,.2.2.3.2.7.4,1.3.9,2,1.3,0,0,.2,0,.2,0,.7.4,1.3.8,2,1.2,0,0,.2,0,.2,0,.7.4,1.4.8,2.1,1.2,0,0,.3.2.4.2.7.4,1.5.8,2.2,1.2,0,0,.2,0,.2,0,.7.4,1.4.7,2.2,1.1,0,0,.2,0,.3.2.8.4,1.5.7,2.3,1.1.2,0,.3,0,.5.2.8.3,1.6.7,2.4,1,0,0,0,0,.2,0,.8.3,1.5.6,2.3.9,0,0,.3,0,.4.2.8.3,1.6.6,2.4.9.2,0,.3,0,.5.2.8.3,1.7.6,2.5.9h0c.8.3,1.7.5,2.5.8.2,0,.3,0,.5,0,.8.2,1.7.5,2.6.7.2,0,.3,0,.5,0,.9.2,1.8.5,2.7.7,9.2,2.1,18.2,3,26.8,2.8,1.1,0,2.3-.1,3.4-.1,1.7-.1,3.3-.2,5-.4,1.1-.1,2.2-.3,3.2-.4,1.6-.2,3.2-.5,4.7-.9,1-.2,2-.5,3-.7.5-.1,1-.3,1.5-.4,1-.3,2-.6,2.9-.9,1.9-.6,3.8-1.3,5.5-2,.9-.4,1.8-.8,2.6-1.2l.6-.3-2.7,9.8c-.3,1.3.4,2.6,1.7,2.9l10,2.3c1.2.3,2.4-.4,2.8-1.7l11.1-41Z"/>
  </g>
  <g>
    <path d="M26.1,171.6v-3.4h3v3.4h-3ZM26.1,196.9v-20.3h3v20.3h-3Z"/>
    <path d="M52.4,176.6v20.1c0,3-.6,5.1-1.8,6.2-1.2,1.2-3.2,1.8-6.2,1.8h-1.4c-2.6,0-4.6-.5-5.8-1.4-1.2-1-1.9-2.6-2.1-4.8h3.1c0,1.3.5,2.2,1.2,2.7s1.9.8,3.7.8h1.3c1.8,0,3-.3,3.8-.9.8-.6,1.1-1.5,1.1-2.8v-4.3c-.6,1.1-1.3,1.9-2.3,2.4s-2.3.7-4,.7c-2.9,0-4.9-.6-6.1-1.8-1.2-1.2-1.8-3.3-1.8-6.2v-4.8c0-3,.6-5,1.8-6.2s3.2-1.8,6.1-1.8,3.1.3,4.2.8c1,.6,1.8,1.4,2.3,2.6v-3.2h2.9ZM49.4,188.4v-3.3c0-2.1-.5-3.7-1.5-4.6-1-1-2.6-1.4-4.7-1.4s-3.3.4-3.9,1.1c-.7.7-1,2.3-1,4.9v3.5c0,2.5.3,4.2,1,4.9s2,1.1,3.9,1.1,3.7-.5,4.7-1.4,1.5-2.6,1.5-4.8Z"/>
    <path d="M58.2,187.6v-2.7h10.8v2.7h-10.8Z"/>
    <path d="M91.3,176.6v20.3h-2.9v-2.8c-.5,1-1.3,1.8-2.4,2.3s-2.5.7-4.3.7c-2.6,0-4.5-.5-5.6-1.6s-1.6-3-1.6-5.6v-13.3h3v12.7c0,2.1.3,3.5.9,4.2s1.9,1,3.7,1,3.6-.5,4.6-1.4c1-1,1.5-2.5,1.5-4.6v-11.8h3.1Z"/>
    <path d="M97.6,196.9v-20.3h2.9v2.8c.4-1.1,1.1-1.8,2-2.3s2.1-.7,3.6-.7c2.2,0,3.8.5,4.7,1.6.9,1.1,1.3,3,1.3,5.7v.2h-3v-.6c0-1.6-.3-2.7-.8-3.3s-1.5-.8-2.9-.8-2.9.5-3.6,1.4-1.1,2.5-1.1,4.6v11.8h-3.1Z"/>
    <path d="M116.3,196.9v-28.7h3v11.3c.6-1.1,1.4-1.9,2.3-2.4,1-.5,2.3-.7,4-.7,2.9,0,4.9.6,6.1,1.8,1.2,1.2,1.8,3.3,1.8,6.2v4.8c0,2.9-.6,5-1.8,6.2s-3.2,1.8-6.1,1.8-3.1-.3-4.2-.8c-1-.5-1.8-1.4-2.3-2.6v3.1h-2.8ZM119.2,185.1v3.3c0,2.1.5,3.6,1.5,4.6s2.6,1.4,4.7,1.4,3.3-.4,3.9-1.1c.6-.7,1-2.3,1-4.9v-3.5c0-2.6-.3-4.2-1-4.9-.6-.7-2-1.1-3.9-1.1s-3.7.5-4.7,1.4c-1,1.2-1.5,2.7-1.5,4.8Z"/>
    <path d="M152.4,194.8c-.5.8-1.2,1.5-2.2,1.8-1,.4-2.4.6-4.2.6-3.2,0-5.3-.5-6.4-1.4-1.1-.9-1.6-2.6-1.6-5.1s.1-2.5.4-3.4c.3-.8.7-1.5,1.2-1.9s1.2-.7,2.1-.9c.9-.2,2.3-.3,4.1-.3s3.2.2,4.2.5,1.7.8,2.2,1.5v-3.5c0-1.7-.3-2.7-1-3.2-.6-.5-2.3-.7-4.8-.7s-3.1.2-3.7.6c-.6.4-.9,1.1-1,2.2h-3v-.5c0-1.7.6-3,1.7-3.7,1.1-.7,3.1-1.1,5.8-1.1s3.8.1,4.9.3c1.1.2,1.9.5,2.5.9.6.5,1,1,1.3,1.7.2.7.4,1.8.4,3.5v14.2h-2.7l-.2-2.1ZM152.2,191.8v-2.1c0-1-.5-1.7-1.5-2.1-1-.4-2.5-.7-4.7-.7s-3.3.2-3.9.7c-.7.5-1,1.4-1,2.8s.3,2.7,1.1,3.2c.7.5,2.1.8,4.2.8s3.3-.2,4.3-.7c1-.4,1.5-1.1,1.5-1.9Z"/>
    <path d="M161.4,196.9v-20.3h2.9v2.8c.5-1,1.3-1.8,2.4-2.3,1.1-.5,2.5-.7,4.3-.7,2.7,0,4.5.5,5.6,1.6s1.6,3,1.6,5.7v13.3h-3v-12.7c0-2.1-.3-3.5-.9-4.2-.6-.7-1.8-1-3.6-1s-3.7.5-4.7,1.5-1.5,2.5-1.5,4.6v11.8h-3.1Z"/>
    <path d="M2.3,190.8h3v.5c0,1.2.4,2.1,1.2,2.6.8.5,2.1.7,4.4.7s4.2-.2,4.8-.7c.6-.5.9-1.4.9-2.7v-3.7H2.2v-5.3c0-2.2.6-3.8,1.7-4.6s3.6-1.2,7.5-1.2,5.6.4,6.7,1.1c1.1.8,1.6,2.1,1.6,4h-3v-.2c0-.9-.4-1.5-1.2-1.9-.8-.3-2.9-.5-5.2-.5s-3.6.2-4.3.6c-.6.4-.9,1.3-.9,2.6v2.8h14.5v6.1c0,1.5-.2,2.6-.6,3.4-.4.8-1,1.4-2,2-.4.3-1.1.5-2.1.6s-2.4.2-4.1.2c-3.6,0-5.7-.4-6.9-1.2-1.2-.8-1.7-2.3-1.7-4.5v-.7h.1Z"/>
  </g>
  <g>
    <path d="M.9,222.8v-8.4h.9v8.4h-.9Z"/>
    <path d="M3.9,222.8v-8.4h1.4l4.6,7.5v-7.5h.9v8.4h-1.4l-4.6-7.5v7.5h-.9Z"/>
    <path d="M12.9,222.8v-8.4h1.5l2.9,7.5,2.9-7.5h1.5v8.4h-.9v-7.6l-2.9,7.6h-1.2l-2.9-7.6v7.6h-.9Z"/>
    <path d="M23.5,217.2c0-1.1.2-1.8.7-2.3.4-.4,1.2-.6,2.4-.6h1.1c1.1,0,1.9.2,2.4.6.4.4.7,1.2.7,2.3v2.9c0,1.1-.2,1.8-.7,2.3-.4.4-1.2.6-2.4.6h-1.1c-1.1,0-1.9-.2-2.4-.6-.4-.4-.7-1.2-.7-2.3v-2.9ZM27.3,215.2h-.5c-.6,0-1,0-1.3.1-.2.1-.5.2-.6.3-.2.1-.3.3-.4.6-.1.2-.1.7-.1,1.3v2.4c0,.6,0,1,.1,1.2s.2.4.4.6c.2.2.4.3.6.3.2.1.7.1,1.3.1h.5c.6,0,1,0,1.3-.1.2-.1.5-.2.6-.3.2-.1.3-.3.3-.6.1-.2.1-.7.1-1.3v-2.4c0-.6,0-1-.1-1.3-.1-.2-.2-.4-.4-.6-.2-.1-.4-.3-.6-.3h-1.2Z"/>
    <path d="M32.4,222.8v-8.4h3.9c.9,0,1.5.1,1.8.4.3.3.4.8.4,1.7s0,1.1-.2,1.4c0,.3-.4.4-.8.5.4.1.8.3.9.6.2.3.3.8.3,1.5s-.2,1.6-.5,1.9c-.4.3-1.1.5-2.2.5h-3.6ZM33.3,218h3c.5,0,.8-.1,1-.3s.3-.6.3-1.2,0-.9-.3-1.1c-.2-.1-.6-.2-1.4-.2h-2.6v2.8ZM33.3,221.9h3.1c.6,0,.9-.1,1.1-.3.2-.2.3-.6.3-1.3s0-1-.3-1.2-.8-.3-1.7-.3h-2.5s0,3.1,0,3.1Z"/>
    <path d="M40.5,222.8v-8.4h.9v8.4h-.9Z"/>
    <path d="M43.5,222.8v-8.4h.9v7.6h4.8v.9h-5.7Z"/>
    <path d="M50.4,222.8v-8.4h.9v8.4h-.9Z"/>
    <path d="M52.5,222.8l3.1-8.4h1.5l3.1,8.4h-1l-.8-2.2h-4.3l-.8,2.2h-.8ZM54.6,219.8h3.7l-1.7-4.5h-.3l-1.7,4.5Z"/>
    <path d="M61.4,222.8v-8.4h3.8c.9,0,1.6.1,2,.4.4.3.5.8.5,1.5v1.3c0,.4,0,.8-.3,1-.2.3-.5.4-.8.5.4.1.7.3.8.5.2.2.2.6.2,1.2v2h-1v-1.7c0-.6,0-1-.3-1.2s-.6-.3-1.1-.3h-3v3.3h-.8ZM65.1,215.3h-2.7v3.4h2.7c.7,0,1.2-.1,1.4-.3.2-.2.3-.5.3-.9v-1c0-.5,0-.8-.3-.9-.3-.2-.7-.3-1.4-.3Z"/>
    <path d="M69.5,222.8v-8.4h.9v8.4h-.9Z"/>
    <path d="M71.6,222.8l3.1-8.4h1.5l3.1,8.4h-1l-.8-2.2h-4.3l-.8,2.2h-.8ZM73.7,219.8h3.7l-1.7-4.5h-.3l-1.7,4.5Z"/>
    <path d="M88.7,222.8h-.9v-3.7l-3.5-4.7h1.1l2.8,3.9,2.8-3.9h1.1l-3.5,4.7v3.7h0Z"/>
    <path d="M97.9,222.8v-8.4h.9v7.6h4.8v.9h-5.7Z"/>
    <path d="M104.6,217.2c0-1.1.2-1.8.7-2.3.4-.4,1.2-.6,2.4-.6h1.1c1.1,0,1.9.2,2.4.6.4.4.7,1.2.7,2.3v2.9c0,1.1-.2,1.8-.7,2.3-.4.4-1.2.6-2.4.6h-1.1c-1.1,0-1.9-.2-2.4-.6-.4-.4-.7-1.2-.7-2.3v-2.9ZM108.4,215.2h-.5c-.6,0-1,0-1.3.1s-.5.2-.6.3c-.2.1-.3.3-.4.6,0,.2,0,.7,0,1.3v2.4c0,.6,0,1,0,1.2s.2.4.4.6c.2.2.4.3.6.3s.7.1,1.3.1h.5c.6,0,1,0,1.3-.1s.5-.2.6-.3c.2-.1.3-.3.3-.6,0-.2,0-.7,0-1.3v-2.4c0-.6,0-1,0-1.3,0-.2-.2-.4-.4-.6-.2-.1-.4-.3-.6-.3h-1.2Z"/>
    <path d="M112.4,215.3v-.9h6.3v.9h-2.7v7.5h-1v-7.5h-2.6Z"/>
    <path d="M119.6,222.8v-8.4h.9v8.4h-.9Z"/>
    <path d="M122.6,222.8v-8.4h5.3v.9h-4.3v2.8h4.2v.9h-4.2v3.9h-1Z"/>
    <path d="M129.4,222.8v-8.4h.9v8.4h-.9Z"/>
    <path d="M132.1,217.2c0-1.1.2-1.8.6-2.3.4-.4,1.1-.6,2.2-.6h1c1,0,1.8.2,2.2.5.4.4.6,1,.6,1.9v.4h-1v-.2c0-.6-.1-1.1-.4-1.3s-.8-.4-1.5-.4h-.7c-.5,0-.9,0-1.1.1-.2.1-.4.2-.6.3-.2.1-.3.3-.3.6-.1.2-.1.7-.1,1.3v2.4c0,.6,0,1,.1,1.3.1.2.2.4.3.6.2.1.3.3.6.3.2.1.6.1,1.1.1h.7c.8,0,1.3-.1,1.6-.4.3-.2.4-.7.4-1.4v-.4h1v.6c0,.9-.2,1.6-.6,2-.4.4-1.1.5-2.2.5h-1c-1,0-1.8-.2-2.2-.6-.4-.4-.6-1.2-.6-2.3v-3h-.1Z"/>
    <path d="M139.2,222.8l3.1-8.4h1.5l3.1,8.4h-1l-.8-2.2h-4.1l-.8,2.2h-1ZM141.3,219.8h3.7l-1.7-4.5h-.3l-1.7,4.5Z"/>
    <path d="M148.2,222.8v-8.4h4.1c1.1,0,1.8.2,2.2.6.4.4.6,1.2.6,2.2v2.8c0,1-.2,1.8-.6,2.2s-1.2.6-2.2.6h-4.1ZM149.1,222h3c.8,0,1.4-.1,1.6-.4s.4-.8.4-1.6v-2.7c0-.8-.1-1.4-.4-1.6-.3-.3-.8-.4-1.6-.4h-3v6.7Z"/>
    <path d="M156.6,217.2c0-1.1.2-1.8.7-2.3s1.2-.6,2.4-.6h1.1c1.1,0,1.9.2,2.4.6.4.4.7,1.2.7,2.3v2.9c0,1.1-.2,1.8-.7,2.3s-1.2.6-2.4.6h-1.1c-1.1,0-1.9-.2-2.4-.6s-.7-1.2-.7-2.3v-2.9ZM160.4,215.2h-.5c-.6,0-1,0-1.3.1s-.5.2-.6.3c-.2.1-.3.3-.4.6-.1.2-.1.7-.1,1.3v2.4c0,.6,0,1,.1,1.2s.2.4.4.6c.2.2.4.3.6.3s.7.1,1.3.1h.5c.6,0,1,0,1.3-.1s.5-.2.6-.3c.2-.1.3-.3.3-.6s.1-.7.1-1.3v-2.4c0-.6,0-1-.1-1.3-.1-.2-.2-.4-.4-.6-.2-.1-.4-.3-.6-.3h-1.2Z"/>
    <path d="M165.5,222.8v-8.4h3.8c.9,0,1.6.1,2,.4.4.3.5.8.5,1.5v1.3c0,.4-.1.8-.3,1-.2.3-.5.4-.8.5.4.1.7.3.8.5.2.2.2.6.2,1.2v2h-1v-1.7c0-.6-.1-1-.3-1.2s-.6-.3-1.1-.3h-3v3.3h-.8ZM169.1,215.3h-2.7v3.4h2.7c.7,0,1.2-.1,1.4-.3s.3-.5.3-.9v-1c0-.5-.1-.8-.3-.9-.2-.2-.7-.3-1.4-.3Z"/>
    <path d="M172.7,222.8l3.1-8.4h1.5l3.1,8.4h-1l-.8-2.2h-4.3l-.8,2.2h-.8ZM174.8,219.8h3.7l-1.7-4.5h-.3l-1.7,4.5Z"/>
  </g>
  <path class="st1" d="M173.3,32s-50.6-15.8-67.6-19.7C88.6,8.3,37.5.3,37.5.3c-5-1.2-9.9,1.8-11.1,6.6,0,0-13.8,42.3-17.2,56.8,0,0,0,.2-.1.3,12.2,8.4,38.5,19.9,84.3,11.3,32.5-6.1,66.5,9.8,79.5,16.9,3.2-18,7.1-49.4,7.1-49.4,1.4-4.8-1.7-9.7-6.7-10.8Z"/>
  <path class="st0" d="M154.3,50.1c2.9-13.4-17.8-29.3-46.3-35.5s-54-.4-56.9,13c-2.9,13.4,17.8,29.3,46.3,35.5s54,.4,56.9-13Z"/>
</svg>